HIERARCHY
ROOT Hips
{
  OFFSET 265.287 66.7526 -254.649
  CHANNELS 6 Xposition Yposition Zposition Zrotation Xrotation Yrotation
  JOINT LeftUpLeg
  {
    OFFSET 8.64259 1.95398 -2.38835
    CHANNELS 3 Zrotation Xrotation Yrotation
    JOINT LeftLeg
    {
      OFFSET 43.7702 0 0
      CHANNELS 3 Zrotation Xrotation Yrotation
      JOINT LeftFoot
      {
        OFFSET 40.6238 0 0
        CHANNELS 3 Zrotation Xrotation Yrotation
        JOINT LeftToeBase
        {
          OFFSET 12.7242 0 0
          CHANNELS 3 Zrotation Xrotation Yrotation
          End Site
          {
            OFFSET 0 0 0
          }
        }
      }
    }
  }
  JOINT RightUpLeg
  {
    OFFSET -8.2249 1.95398 -2.59336
    CHANNELS 3 Zrotation Xrotation Yrotation
    JOINT RightLeg
    {
      OFFSET 43.5653 0 0
      CHANNELS 3 Zrotation Xrotation Yrotation
      JOINT RightFoot
      {
        OFFSET 40.6238 0 0
        CHANNELS 3 Zrotation Xrotation Yrotation
        JOINT RightToeBase
        {
          OFFSET 12.7242 0 0
          CHANNELS 3 Zrotation Xrotation Yrotation
          End Site
          {
            OFFSET 0 0 0
          }
        }
      }
    }
  }
  JOINT Spine
  {
    OFFSET 0.165834 0.87714 6.61349
    CHANNELS 3 Zrotation Xrotation Yrotation
    JOINT Spine1
    {
      OFFSET 7.38963 1.71661e-005 0
      CHANNELS 3 Zrotation Xrotation Yrotation
      JOINT Spine2
      {
        OFFSET 11.9445 1.14441e-005 0
        CHANNELS 3 Zrotation Xrotation Yrotation
        JOINT Spine3
        {
          OFFSET 14.7254 4.19617e-005 0
          CHANNELS 3 Zrotation Xrotation Yrotation
          JOINT Spine4
          {
            OFFSET 10.9679 0 0
            CHANNELS 3 Zrotation Xrotation Yrotation
            JOINT RightShoulder
            {
              OFFSET 2.46616 -1.6653 3.69651
              CHANNELS 3 Zrotation Xrotation Yrotation
              JOINT RightArm
              {
                OFFSET 13.0012 0 0
                CHANNELS 3 Zrotation Xrotation Yrotation
                JOINT RightForeArm
                {
                  OFFSET 28.7848 1.52588e-005 0
                  CHANNELS 3 Zrotation Xrotation Yrotation
                  JOINT RightHand
                  {
                    OFFSET 26.5688 1.52588e-005 0
                    CHANNELS 3 Zrotation Xrotation Yrotation
                    End Site
                    {
                      OFFSET 0 0 0
                    }
                  }
                }
              }
            }
            JOINT LeftShoulder
            {
              OFFSET 2.38034 -1.29275 -3.7523
              CHANNELS 3 Zrotation Xrotation Yrotation
              JOINT LeftArm
              {
                OFFSET 16.3182 6.10351e-005 0
                CHANNELS 3 Zrotation Xrotation Yrotation
                JOINT LeftForeArm
                {
                  OFFSET 27.0901 0 0
                  CHANNELS 3 Zrotation Xrotation Yrotation
                  JOINT LeftHand
                  {
                    OFFSET 24.5451 1.52588e-005 0
                    CHANNELS 3 Zrotation Xrotation Yrotation
                    End Site
                    {
                      OFFSET 0 0 0
                    }
                  }
                }
              }
            }
            JOINT Neck
            {
              OFFSET 5.0226 -0.0266342 0
              CHANNELS 3 Zrotation Xrotation Yrotation
              JOINT Head
              {
                OFFSET 6.69364 2.86102e-005 0
                CHANNELS 3 Zrotation Xrotation Yrotation
                End Site
                {
                  OFFSET 0 0 0
                }
              }
            }
          }
        }
      }
    }
  }
}
MOTION
Frames:	15
Frame Time:	0.0416667
-274.326 92.0262 278.14 87.218 37.0795 88.87 -169.225 -9.54629 89.3915 0.98589 13.8675 -4.15447 64.473 2.46168 14.4801 34.1056 -1.33742 -4.89132 175.964 -0.805753 86.841 -14.2094 -7.60509 -2.80371 69.3224 2.06322 15.1682 27.4661 0.163137 0.22546 1.28245 5.35772 -89.217 16.1482 2.92781 1.09949 4.48016 2.97338 0.969458 -18.0713 2.46204 1.92892 1.94136 2.46201 1.92892 131.005 -46.7555 -36.8271 31.7952 -10.227 7.36539 -11.7862 -36.8768 -31.7787 -11.7629 -0.937711 4.22017 -61.9963 -34.8745 125.579 -41.3967 20.0164 -8.07688 150.547 78.3648 -162.506 25.8793 12.2904 42.2552 25.7112 -23.6868 -12.7692 -47.8207 -23.4716 12.5094 
-274.465 92.0592 278.286 87.2046 37.2367 88.5904 -169.389 -9.40531 89.1144 0.913502 13.7488 -4.18628 64.3324 2.40855 14.3694 34.194 -1.37407 -4.81232 175.92 -0.469181 86.6446 -14.6407 -8.18312 -2.84336 69.1979 1.98399 14.3304 27.7177 0.133505 0.170336 1.24045 5.38955 -89.1409 16.0818 2.88335 1.26263 4.41353 2.93614 1.13442 -18.1354 2.37061 2.07106 1.87724 2.37062 2.07106 131.243 -47.1142 -36.6649 31.9673 -10.2558 6.80768 -11.5225 -37.1264 -31.3595 -12.1287 -0.990608 4.44517 -62.0695 -34.3686 125.642 -41.6062 20.0259 -8.43508 152.293 77.8122 -164.402 25.5412 12.505 43.5021 26.7921 -24.0589 -13.203 -48.6902 -23.7744 12.8493 
-274.849 92.1884 278.674 87.0226 37.7205 88.0466 -169.841 -8.98747 88.4214 1.03508 14.0095 -4.21602 63.8969 2.39039 14.6148 34.111 -1.33512 -4.95948 175.82 0.0597717 86.1608 -14.6645 -8.01007 -2.93074 68.989 1.95398 14.2491 27.7681 0.183475 -0.286414 1.13566 5.40587 -89.0609 16.0467 2.7169 1.45239 4.37791 2.77821 1.33134 -18.1664 2.15486 2.20188 1.84627 2.15488 2.20188 131.038 -47.6599 -37.2485 31.623 -10.3731 6.61232 -11.2347 -36.5957 -30.9592 -11.7972 -0.865095 3.45821 -62.2038 -34.4168 125.385 -41.5843 19.9873 -8.51997 155.096 76.2491 -167.489 25.7149 13.3647 46.1162 27.7897 -23.8131 -12.3446 -50.0354 -23.5604 12.0275 
-275.421 92.3652 279.246 86.7841 38.5082 87.2258 -170.673 -8.27348 87.3391 1.02091 14.2778 -4.11673 62.9833 2.14449 14.5421 34.6141 -1.54223 -4.48662 175.446 1.44694 85.3218 -16.0269 -7.9565 -2.75885 68.6645 1.95469 12.9829 28.2631 -0.0478765 1.06391 0.970955 5.44659 -88.9495 15.9618 2.4478 1.72312 4.2922 2.52127 1.61369 -18.2452 1.81692 2.37903 1.76748 1.81691 2.37903 130.727 -48.5189 -38.1398 31.0999 -10.5075 5.95898 -10.3195 -35.9784 -29.7716 -12.4059 -0.822241 2.59647 -62.2684 -34.7795 125.135 -41.2029 20.097 -8.96187 157.363 74.6379 -170.078 25.5015 14.1683 49.1141 29.9739 -23.2954 -10.6617 -52.7225 -23.101 10.4889 
-276.134 92.6608 280.018 86.6278 39.6386 86.165 -171.485 -7.39077 86.1558 0.944601 14.9085 -4.12997 62.1868 2.10917 14.8613 34.7132 -1.57453 -4.54124 175.481 3.06892 84.5907 -17.5569 -6.97183 -3.01851 68.3813 2.06728 13.1663 29.5101 -0.212338 0.982088 0.754847 5.50775 -88.8069 15.8365 2.09218 2.07089 4.16574 2.18127 1.97681 -18.363 1.3733 2.6037 1.64966 1.3733 2.60369 130.41 -49.7595 -39.2133 30.3747 -10.9195 5.46009 -9.95196 -35.3593 -29.6809 -12.5134 -0.854537 2.83689 -62.5827 -34.9888 124.503 -40.8447 20.4735 -9.32781 157.149 74.1833 -170.187 25.3689 14.8008 51.4002 32.0437 -22.9794 -9.58236 -54.7966 -22.8848 9.74088 
-276.86 92.9973 280.864 86.396 41.1125 85.007 -172.777 -6.3959 84.5535 0.999928 16.2619 -3.88667 60.8774 2.17062 16.9116 36.1465 -2.04788 -5.24139 175.427 5.36845 83.8615 -20.4505 -7.18696 -3.08443 68.2222 1.53452 10.5562 30.6121 -0.380005 1.14262 0.487503 5.5764 -88.652 15.6975 1.64119 2.45715 4.02544 1.74772 2.38258 -18.4938 0.827186 2.8365 1.5188 0.827194 2.8365 130 -51.057 -40.4242 29.6933 -11.1435 4.99128 -10.1196 -35.2162 -30.6259 -12.1072 -1.14761 6.00149 -63.0922 -35.1398 123.55 -40.4981 20.9409 -9.5995 154.898 76.0457 -168.037 26.1721 15.3777 51.8337 34.3048 -22.5271 -8.66402 -56.8697 -22.6069 9.30912 
-277.501 93.1656 281.707 86.4224 43.011 83.6299 -174.43 -5.47536 82.924 0.68663 16.5744 -3.2835 60.2691 2.37976 16.918 36.7778 -2.28492 -4.94604 175.391 7.21192 82.8607 -23.0656 -4.78906 -3.34163 69.1426 1.75457 12.5046 31.2653 -0.300793 -0.662997 0.170284 5.68526 -88.4967 15.4809 1.0901 2.85869 3.80734 1.21481 2.80799 -18.7029 0.180987 3.05396 1.30977 0.180986 3.05396 129.557 -52.9316 -41.9135 28.578 -11.0384 4.42389 -9.21048 -33.7891 -29.964 -12.1248 -1.16229 6.12717 -63.8175 -35.7514 122.064 -39.6744 21.3045 -10.0104 147.861 79.8228 -160.498 26.9138 14.6305 48.2045 36.7337 -22.2167 -8.47246 -57.941 -22.7917 10.4605 
-277.864 93.2426 282.318 86.2698 45.286 82.4512 -175.85 -4.10509 81.5189 -0.543466 17.3713 -2.6806 59.9743 2.27654 16.27 37.9287 -2.71268 -4.32251 174.381 8.45725 81.5325 -24.3473 -5.57213 -2.67398 68.6491 1.4169 9.77508 33.1379 -0.667046 0.523423 -0.190229 5.76793 -88.3857 15.3209 0.430887 3.18368 3.64621 0.570509 3.16166 -18.8581 -0.545378 3.1661 1.15453 -0.545365 3.16609 128.956 -54.9274 -43.6274 27.0015 -10.6474 4.02114 -8.54603 -32.0809 -29.3574 -12.2516 -1.14597 5.85833 -64.8413 -36.5975 120.001 -38.9829 21.1186 -11.0916 152.549 79.6599 -164.439 29.1924 12.4809 40.7464 38.6074 -21.0799 -7.87835 -59.3696 -22.0651 10.7065 
-277.917 93.1063 282.711 86.402 47.9031 81.0755 -177.552 -2.55486 80.0491 -2.90501 17.6248 -1.75531 60.4436 2.56308 15.5448 38.1307 -2.79378 -3.90453 173.411 9.26817 80.0279 -25.6596 -3.57573 -2.2043 69.5824 1.67198 11.6102 32.3544 -0.557698 0.472208 -0.585129 5.88796 -88.3125 15.0905 -0.317037 3.44229 3.41505 -0.165323 3.45289 -19.0879 -1.33639 3.18836 0.924754 -1.33641 3.18835 128.169 -56.9325 -45.5389 25.0598 -9.81864 3.33221 -7.4464 -30.2399 -27.9126 -11.6229 -0.976605 4.73981 -66.2183 -37.3551 117.383 -39.1094 18.5529 -12.993 6.35399 54.5051 -10.3884 11.5305 -0.0266389 -3.84598 40.2115 -19.3973 -7.54683 -60.5898 -20.8401 11.1759 
-277.658 92.8398 282.643 87.731 50.3368 78.7573 179.375 -1.08011 77.8091 -6.75245 16.0843 -0.0126193 61.0145 3.68319 16.4258 38.4953 -2.90635 -4.32549 171.585 9.51644 78.1518 -27.6706 -4.0983 -1.07045 70.5162 1.21416 10.0429 32.7847 -0.699559 1.4871 -0.928294 6.10422 -88.2756 14.6691 -0.985007 3.60636 2.99341 -0.82542 3.64614 -19.5125 -2.02285 3.14436 0.500134 -2.02283 3.14437 126.919 -59.3971 -48.1781 22.3564 -9.41525 3.15054 -6.34045 -28.705 -27.3237 -12.3537 -1.27255 6.95214 -67.8599 -38.2553 114.313 -38.2564 20.3022 -14.4872 7.73278 49.897 -12.5999 9.01906 -0.222663 -5.64074 40.7178 -16.9798 -7.2309 -60.7268 -18.9187 11.7041 
-277.276 92.1373 282.709 87.9629 52.4431 78.6295 175.617 2.47688 77.4763 -11.3316 13.0526 1.25724 57.2382 3.98903 14.9062 43.7707 -4.57674 0.654485 171.05 10.8084 78.0167 -31.3675 -1.72185 -0.355162 73.0786 1.38847 11.8032 30.9734 -0.461161 1.55059 -1.15581 6.29799 -88.4267 14.2908 -1.51681 3.36872 2.61622 -1.36717 3.43211 -19.9007 -2.45879 2.75779 0.11196 -2.4588 2.75779 125.348 -61.8588 -51.1246 19.5266 -9.00126 2.60744 -5.00555 -26.9174 -25.2824 -11.8691 -0.992594 4.68638 -69.3336 -40.7627 111.289 -34.6918 22.6498 -15.0543 11.4913 43.0655 -19.3623 8.00912 -0.175165 -5.29318 40.0106 -13.6923 -6.84149 -59.6572 -16.0242 11.989 
-276.424 91.2214 282.421 86.991 53.8562 80.0284 174.414 15.0527 76.8979 -33.5024 9.03361 1.90055 55.2311 2.81632 10.4208 46.4015 -5.4032 0.644084 171.029 11.6549 78.7471 -33.8374 0.122274 0.209115 75.2117 1.66701 12.5168 31.0915 -0.620973 3.08922 -1.20569 6.44589 -88.6484 13.9985 -1.72909 2.94458 2.32521 -1.59789 3.01776 -20.2014 -2.53391 2.2892 -0.188791 -2.53391 2.2892 121.859 -63.9974 -56.3321 17.1482 -8.36593 2.88258 -3.38088 -25.1525 -23.0926 -11.7487 -1.07727 5.65934 -70.3759 -44.21 109 -30.6818 23.7235 -14.3328 15.4813 37.2717 -26.3167 8.49472 -0.234488 -5.87188 37.7434 -9.39705 -6.10053 -57.4492 -11.5997 10.8842 
-275.127 90.8259 281.331 86.1301 53.9994 81.2084 176.544 24.8438 77.1031 -45.2574 9.06219 1.06257 55.5236 2.07215 9.42125 46.7134 -5.60266 -1.313 170.874 10.4594 79.2466 -33.222 0.607779 0.550451 76.5186 1.78279 12.9856 30.772 -0.564505 2.84765 -1.05514 6.56495 -88.8916 13.7565 -1.55269 2.4264 2.0841 -1.44441 2.49233 -20.4468 -2.21001 1.84779 -0.434189 -2.21003 1.84778 117.047 -65.0632 -62.8149 14.9008 -7.93579 2.86189 -1.97957 -25.8808 -20.5937 -11.6306 -1.12517 6.26118 -71.0821 -48.6377 107.296 -26.7056 24.5488 -12.2509 20.8861 40.9973 -32.0738 18.3157 -0.304162 -5.54027 34.4865 -4.45873 -4.13148 -54.1565 -6.72099 9.10577 
-273.45 90.8537 279.942 84.8362 53.2477 82.731 178.096 26.9651 76.9066 -33.444 8.84339 0.0722465 54.4138 1.04572 7.95811 45.3382 -5.14174 -0.889061 171.396 8.96522 80.2797 -31.5468 1.59094 0.123718 76.0124 1.62532 13.7147 33.1899 -0.713878 1.00897 -0.84474 6.71547 -89.0924 13.4508 -1.23643 1.97568 1.77887 -1.1483 2.02814 -20.7532 -1.77299 1.51286 -0.740527 -1.77298 1.51286 111.365 -65.9011 -70.2885 13.6587 -6.16761 -0.0911832 1.12533 -24.0236 -13.3654 -11.6748 -0.843991 3.36394 -72.4637 -52.5825 104.806 -23.345 23.1994 -10.3837 29.5658 56.4465 -37.7886 29.1908 -0.589411 -6.30302 31.1793 -0.329747 -3.16856 -49.2692 -2.64928 8.7206 
-271.257 90.8252 277.969 84.9144 51.3936 84.244 177.454 24.9203 78.6107 -12.4191 10.1159 0.941981 51.6362 -1.00119 5.24075 44.2348 -4.74422 0.938605 171.643 5.88461 82.0419 -29.1972 0.59783 0.0672319 74.3394 0.544444 12.009 36.6307 -1.21853 1.85631 -0.527055 6.891 -89.3807 13.0948 -0.748166 1.33158 1.4234 -0.688843 1.36321 -21.1098 -1.11375 1.04521 -1.09716 -1.11375 1.0452 105.928 -66.2713 -77.3294 11.9007 -7.20306 -0.54685 1.2735 -21.9502 -14.7146 -10.734 -0.902859 4.74607 -74.7192 -56.8819 101.273 -20.2082 16.0411 -8.88638 6.94289 31.6583 -15.9091 8.31416 -0.26862 -5.87545 24.4745 2.58901 -1.47903 -39.0925 0.508454 7.92255 
